<?xml version="1.0" encoding="utf-8"?>
<!-- Generator: Adobe Illustrator 23.0.1, SVG Export Plug-In . SVG Version: 6.00 Build 0)  -->
<svg version="1.1" id="圖層_1" xmlns="http://www.w3.org/2000/svg" xmlns:xlink="http://www.w3.org/1999/xlink" x="0px" y="0px"
	 viewBox="0 0 64 64" style="enable-background:new 0 0 64 64;" xml:space="preserve">
<style type="text/css">
	.st0{clip-path:url(#SVGID_2_);}
	.st1{fill:#F6E04F;}
	.st2{fill-rule:evenodd;clip-rule:evenodd;fill:#FFFFFF;}
	.st3{fill-rule:evenodd;clip-rule:evenodd;fill:#241E20;}
	.st4{fill:#18191F;}
</style>
<g>
	<defs>
		<circle id="SVGID_1_" cx="32" cy="32" r="30"/>
	</defs>
	<clipPath id="SVGID_2_">
		<use xlink:href="#SVGID_1_"  style="overflow:visible;"/>
	</clipPath>
	<g class="st0">
		<path class="st1" d="M2,32C2,15.4,15.4,2,32,2s30,13.4,30,30S48.6,62,32,62S2,48.6,2,32z"/>
		<path class="st2" d="M60.1,84.9c-0.3-1.7-0.6-3.4-0.8-5.1c-0.1-0.8-0.2-1.6-0.3-2.4c-0.1-0.6-0.2-1.2,0.2-1.6c0.5-0.6,1-1.1,1.1-2
			c0.1-0.8-0.2-1.7-0.4-2.4c-0.4-1.6-0.8-3.2-1.3-4.8c-0.5-1.6-1-3.2-1.6-4.8c-0.5-1.5-1-3-1.7-4.4c-1.3-2.7-3.4-4.7-6.1-6.1
			c-0.7-0.3-2-1.5-2.7-1.8c-0.6-0.2-0.6,0.5-1.3,0.2c-0.5-0.2-1-0.5-1.2-1c-0.3-0.5-1.1-1.3-1.2-1.9c-0.2-1.3,0-2.4-0.9-3.4
			c-0.8-0.9-1.9-1.5-3.1-1.8c-2.5-0.7-5.9-0.2-7.4,2.1c-0.7,1.1-1,2.5-2,3.4c-0.9,0.8-0.7,1.3-1.8,1.7c-0.1,0-1.8-0.3-1.8-0.3
			c-1.2-0.3-2.4,0.5-3.5,0.9c-1.7,0.6-3.2,1.4-4.7,2.4c-3,2-5.5,4.5-7.6,7.4c-2.1,2.9-3.8,6.1-4.9,9.5c-0.3,0.8-0.5,1.7-0.8,2.5
			c-0.1,0.5-0.3,1-0.1,1.4c0.1,0.4,0.4,0.7,0.7,0.9c0.4,0.3,1.3,0.5,1.3,1.2c0,0.5-0.2,1-0.3,1.5c-0.1,0.6-0.2,1.2-0.3,1.7
			c-0.4,2.6-0.6,5.3-0.8,7.9c-0.1,2.6-0.2,5.3,0,7.9c0,0.2,0.1,0.3,0.1,0.5c-0.1,0-0.1,0.2,0,0.2c0.1,0,0.1,0,0.2,0
			c0.1,0.1,0.3,0.2,0.5,0.2c0.1,0,0.3,0,0.4,0c1.4,0.3,2.9,0.6,4.3,0.8c1.8,0.3,3.5,0.5,5.3,0.6c3.7,0.4,7.3,0.2,11,0
			c3.7-0.2,7.3-0.2,11-0.1c3.7,0.1,7.3,0.3,11,0.3c4.1,0.1,8.2,0,12.3-0.4c0.6,0,0.9-0.5,0.8-1C61.5,91.6,60.7,88.3,60.1,84.9z"/>
		<path class="st3" d="M24.8,48.4c0.4,0,0.8,0,1.1,0.1c0,0,0,0.1,0,0.1c-0.7,0.1-1.3,0.3-2,0.5l-0.3,0.1c-0.7,0.2-1.5,0.5-2.2,0.7
			c-1.4,0.6-2.8,1.4-4.1,2.3C12.5,55.7,9,61.1,6.8,66.6c-0.6,1.5-1.1,3-1.5,4.6C5.2,71.6,5.1,72,5,72.3c0,0.1-0.1,0.4-0.1,0.5
			C4.9,73,5.2,73,5.3,73.1l0.3,0.2c0.7,0.3,1.8,0.9,1.9,1l0.2,0.1c2.8,1.4,5.8,2.6,9,2.6l0-0.3c0.1-1.5,0.3-3,0.7-4.5
			c0-0.1,0.1-0.1,0.1,0c0.2,1.7,0.2,3.5,0.1,5.2c-0.1,3.1-0.3,6.1-0.5,9.2c-0.1,1.5-0.2,3.1-0.3,4.6c-0.1,1.5-0.1,3.1-0.3,4.6
			c0,0.3-0.4,0.5-0.7,0.5c-0.3,0-0.6-0.3-0.6-0.7c0-0.9,0.1-1.8,0.2-2.7c0.1-0.8,0.1-1.7,0.2-2.5c0.2-3.1,0.5-6.1,0.8-9.2
			c0.1-1.1,0.2-2.2,0.3-3.3c-3.4-0.1-6.5-1.4-9.5-2.8c0,1-0.1,2-0.3,3c-0.3,2.7-0.5,5.5-0.7,8.2c-0.1,1.4-0.2,2.8-0.2,4.2
			c0,0.7-0.1,1.4-0.1,2.1c0,0.2,0,0.5,0,0.7l0,0.5c0,0.3,0,0.6-0.3,0.9c-0.3,0.2-0.7,0.3-0.9,0c-0.4-0.3-0.3-0.8-0.3-1.3
			c0-0.4,0-0.8,0-1.2c0-0.8,0.1-1.6,0.1-2.3c0.1-2.7,0.4-5.5,0.8-8.2l0.1-1c0.3-1.9,0.6-3.9,1.2-5.8c-0.2-0.1-0.5-0.2-0.7-0.3
			c-0.4-0.2-0.8-0.4-1.2-0.6c-0.3-0.2-0.6-0.4-0.7-0.8c-0.1-0.4,0.1-0.9,0.2-1.3l0,0c0.1-0.4,0.2-0.8,0.3-1.2c0.5-1.6,1-3.2,1.7-4.8
			c1.3-3.1,3-6.1,5.1-8.7c1.9-2.4,4-4.6,6.6-6.2c1.3-0.8,2.6-1.5,4-1.9c0.7-0.2,1.4-0.4,2.1-0.5C24.1,48.4,24.5,48.4,24.8,48.4z
			 M31.6,43.5c0.5-0.5,1.3,0,1.1,0.7c-0.5,1.5-1.3,2.9-2.6,3.9c-1.2,0.9-2.6,1.5-4.1,1.4c0,0,0,0,0,0l0.1,0.2c1,1.4,2.1,2.8,3.4,3.9
			c2.7,2.3,6.3,3.6,9.8,2.7c2.8-0.7,5.2-2.9,5.9-5.7c-0.1,0-0.2,0.1-0.4,0c-0.6-0.1-1.1-0.7-1.5-1.2c-0.4-0.5-0.7-1-0.9-1.5
			c-0.4-1-0.6-2.4,0-3.4c0.1-0.1,0.2-0.1,0.2,0.1l0,0.2c0.1,0.9,0.2,1.9,0.7,2.7c0.2,0.4,0.5,0.8,0.8,1.2c0.2,0.2,0.4,0.4,0.6,0.5
			c0.2,0.2,0.4,0.3,0.6,0.4l0,0l0,0c0-0.4,0.3-0.5,0.6-0.5c0.2,0,0.5,0.1,0.7,0.2l0,0c1.7,0.8,3.3,1.9,4.9,3.1
			c3.1,2.5,5.5,5.8,6.6,9.6c0.6,1.9,0.9,3.8,1.2,5.8l0.2,1.2c0.3,1.8,0.7,3.6,1.4,5.3c0.2,0.4,0,0.8-0.4,1c-0.6,0.2-1.1,0.4-1.7,0.6
			c0.3,1.2,0.4,2.4,0.7,3.6c0.4,2.5,1,5.1,1.4,7.6c0.2,1.3,0.5,2.6,0.7,3.9c0.1,0.6,0.2,1.3,0.3,1.9c0.1,0.3,0.1,0.7,0.2,1l0,0.1
			c0,0.2,0.1,0.4,0,0.5c-0.1,0.2-0.2,0.3-0.4,0.5c-0.1,0.1-0.3,0.1-0.4,0.1l0,0c-0.3-0.1-0.5-0.2-0.5-0.5c-0.1-0.2-0.1-0.4-0.1-0.6
			c-0.1-0.4-0.1-0.7-0.2-1.1c-0.1-0.7-0.3-1.4-0.4-2.2L60,90c-0.4-2.3-0.8-4.7-1-7c-0.1-1-0.2-2.1-0.3-3.1L58.7,79
			c-0.1-1-0.2-2-0.2-3l-0.3,0.1l-1.6,0.6c-0.4,0.1-0.9,0.4-1.4,0.4c-0.2,0-0.4-0.1-0.5-0.2c0.2,2.1,0.4,4.3,0.6,6.4
			c0.2,1.9,0.5,3.9,0.9,5.8c0.2,1,0.3,1.9,0.5,2.9c0.1,0.5,0.2,0.9,0.3,1.4c0,0.2,0.1,0.5,0.1,0.7c0,0.3,0,0.4-0.2,0.7
			c-0.1,0.2-0.4,0.3-0.6,0.2c-0.3-0.2-0.4-0.3-0.5-0.6c-0.1-0.3-0.1-0.6-0.2-0.9c-0.1-0.5-0.2-1-0.3-1.6c-0.2-1.1-0.4-2.2-0.5-3.3
			c-0.6-3.9-1-7.8-1.1-11.7c-0.1-1.9-0.1-3.9-0.1-5.8c0-1,0-2,0.1-3c0.1-1,0.2-2,0.4-3c0,0,0.1,0,0.1,0c0.1,1.1,0.2,2.2,0.2,3.3
			c0,1.1,0.1,2.1,0.1,3.2c0,1.4,0.1,2.8,0.2,4.2c0.2-0.2,0.4-0.3,0.6-0.2c0.3-0.1,0.7-0.3,1.1-0.4l1.2-0.4c0.7-0.2,1.3-0.4,2-0.6
			c-0.6-2-1-4-1.3-6L58,67.2c-0.3-1.8-0.6-3.6-1.2-5.4c-0.6-1.8-1.4-3.5-2.6-5.1c-1.1-1.5-2.5-2.9-3.9-4.1c-1.2-1.1-2.5-2-3.8-3.1
			c0,0.1,0,0.1,0,0.2c-0.3,1.9-1.3,3.7-2.7,5.1c-2.8,2.7-7,3.2-10.6,2c-3.5-1.2-6.6-4.1-7.7-7.7c0-0.1,0.1-0.1,0.1,0
			c0.1,0.1,0.1,0.2,0.2,0.2c0,0,0-0.1,0.1-0.1c1.3-0.5,2.5-1.2,3.5-2.2c0.5-0.5,0.9-1,1.2-1.6c0.2-0.3,0.3-0.6,0.4-0.9l0-0.1
			C31.2,44.2,31.3,43.8,31.6,43.5z"/>
		<path class="st2" d="M30.6,13.9l0.6,0.8c-0.4,0.3-0.7,0.5-1,0.8l0,0c1.5-1,3.1-1.5,4.8-1.5c3.4,0,10.2,2.9,11.8,5
			c0.8,1,2.2,4.2,2.9,7.7c0.6,2.8,1.5,10.7,0.6,13.6c-1.1,3.8-4.9,7.3-8.7,7.3c-3.9,0-9.8-2.8-14.1-8.9c-0.2-0.3-2.4-0.6-4-1.6
			l0.4,4.6l0.3,2.7l-0.1,0.2c-1.1,3.1-2,4.7-2.7,4.8c-0.7,0.1-2.1-1-4.2-3.4l-0.3-1.1c-0.7-2.9-1-4.4-1-4.6l0,0c0-0.5,0.2-3.2,0.2-4
			l0-11.1c2.3-7.5,4.4-11.2,6.4-11.2H30.6z"/>
		<path class="st3" d="M25.3,11.3c0.7-0.3,1.4-0.2,2.1,0.2c1.2-0.1,2.5,0.7,3.1,1.7c0,0,0,0,0,0l0.1,0.2c0.1,0.2,0.3,0.3,0.4,0.5
			c-0.5,0-1,0.2-1.3,0.7c-0.2,0.3,0.3,0.6,0.5,0.3l0,0c0.2-0.3,0.5-0.4,0.8-0.4c0.1,0,0.2,0,0.2-0.1c0,0.1,0,0.1,0.1,0.2
			c1.6-0.6,3.2-0.8,4.9-0.6c-0.1,0.1-0.1,0.2-0.2,0.4c-0.1,0.2,0.1,0.3,0.2,0.4c0.2,0,0.3,0,0.4-0.2l0,0c0.1-0.2,0.2-0.3,0.3-0.5
			c0.8,0.1,1.6,0.3,2.3,0.5c0.9,0.3,1.8,0.6,2.7,1c-0.2,0.1-0.3,0.2-0.4,0.3c-0.2,0.3,0.3,0.6,0.5,0.3l0,0c0,0,0-0.1,0-0.1l0,0l0,0
			l0,0l0,0c0,0,0,0,0.1,0c0.1,0,0.1,0,0.2,0c0.1,0,0.2-0.1,0.3-0.2c0.4,0.2,0.9,0.4,1.3,0.6l0.1,0.1c1.3,0.7,2.6,1.6,3.3,2.9
			c0,0.1,0.1,0.2,0.1,0.3c0.2,0.2,0.3,0.4,0.4,0.6c0.4,0.6,0.8,1.3,1.1,1.9c0.6,1.3,1,2.7,1.3,4.2c0.3,1.4,0.6,2.8,0.8,4.2
			c0.3,1.6,0.5,3.1,0.5,4.7c0.1,2.8-0.5,5.7-2.1,8c-1.4,2.1-3.5,3.8-6.1,4.3c-2.6,0.5-5.3,0-7.3-1.7c-0.3-0.3-0.3-0.8,0-1.1
			c0.3-0.3,0.8-0.3,1.1,0c1.9,1.6,4.7,1.9,7,1c2.1-0.8,3.8-2.5,4.8-4.5c1.2-2.4,1.5-5.2,1.3-7.8c-0.1-1.5-0.3-2.9-0.5-4.3l-0.1-0.9
			c-0.1-0.9-0.3-1.9-0.5-2.8l0-0.2c-0.2-1.1-0.5-2.3-1-3.3c-0.2-0.6-0.5-1.1-0.8-1.6c-0.1-0.1-0.1-0.2-0.2-0.3c-0.1,0-0.2,0-0.3,0
			c-0.8-0.3-1.7-0.4-2.5-0.5c-0.4,0-0.8,0-1.2,0c-0.7,0-1.3,0-2,0.2c-0.1-0.1-0.1-0.1-0.2-0.2c0,0,0,0-0.1,0c-0.2,0-0.3-0.1-0.3-0.3
			c0,0,0,0,0,0c-0.1-0.1-0.2-0.1-0.2-0.2c-0.2,0.1-0.4-0.1-0.4-0.3c0,0-0.1-0.1-0.1-0.1c0,0-0.1,0-0.1,0c-0.1,0-0.3,0-0.4-0.1
			c-0.2-0.1-0.3-0.2-0.3-0.4c-0.3,0-0.5-0.1-0.7-0.2c-0.2-0.1-0.3-0.3-0.5-0.4c-1.7-0.8-3.5-1.2-5.4-1.3c-0.2,0-0.4,0.1-0.5,0.1
			c0,0-0.1,0-0.2,0.1c0.4,0,0.8-0.1,1.2,0c2,0.3,3.6,1.8,4.9,3.2c0.3-0.1,0.6,0.3,0.3,0.6l-2.3,2.1c0.1,0.2-0.2,0.5-0.5,0.4
			c-0.4-0.1-0.8-0.2-1.2-0.3c-0.4,0.2-0.9,0.2-1.3-0.1c0,0-0.1,0-0.1-0.1c0,0-0.1,0.1-0.1,0.1c-0.1,0.1-0.3,0.1-0.5,0.1
			c-0.2,0-0.3-0.1-0.4-0.2c-0.1-0.1-0.3-0.3-0.4-0.4l0,0c0.1,0-0.2,0.2-0.2,0.3c-0.1,0.1-0.3,0.2-0.5,0.1c-0.3,0-0.6-0.3-0.7-0.6
			l0,0l0,0l0,0c0,0,0,0,0,0c0,0.1-0.1,0.1-0.1,0.2c-0.1,0.1-0.3,0.2-0.5,0.1c-0.2,0-0.3-0.1-0.4-0.2l0,0c0,0-0.2-0.3-0.2-0.4l0,0
			l0,0c-0.1,0-0.2,0-0.3-0.1c-0.4-0.1-0.8-0.2-1.2-0.3c0,0.1-0.1,0.2-0.1,0.3c0.2,0.1,0.4,0.3,0.6,0.5c0.4,0.3,0.7,0.5,1.1,0.8
			l1.4,1l0.2,0c0.2-0.1,0.4,0.1,0.5,0.2l0,0c0,0.1,0.1,0.2,0.1,0.2c0.3,0,0.6,0.2,0.7,0.5c0.1,0,0.2,0,0.3,0c0.2,0,0.4,0.2,0.4,0.5
			l0,0l0,0c0.1,0.1,0.2,0.2,0.3,0.4c0,0.1,0.1,0.1,0.1,0.2c0.1,0.4-0.1,0.8-0.2,1.1l0,0c-0.1,0.2-0.1,0.4-0.2,0.7l-0.2,0.6
			c-0.5,1.5-1,3.2-0.6,4.8c0.1,0.3-0.4,0.5-0.5,0.2c-0.5-0.7-1-1.3-1.5-1.9l0,0c-0.4-0.1-0.5-0.3-0.7-0.6c-0.1,0-0.2,0-0.3,0
			c-0.1,0-0.3-0.1-0.4-0.2c-0.1-0.1-0.2-0.3-0.3-0.4c-0.1-0.1-0.4,0-0.6,0c-0.1,0-0.2-0.1-0.4-0.1c-0.2,0.3-0.4,0.6-0.4,1
			c0,0.1-0.1,0.3-0.1,0.4c0.2,0,0.4,0,0.7,0c0.8,0.2,1.4,0.7,1.7,1.4c0,0,0,0.1,0,0c-0.5-0.7-1.5-0.8-2.3-0.5
			c-0.8,0.3-1.3,1-1.4,1.8C24.8,35,25,36,25.5,36.8c0.2,0.4,0.5,0.7,0.9,0.8c0.5,0.2,0.9-0.1,1.4,0c0.3,0.1,0.5,0.4,0.4,0.8
			c0,0.1-0.1,0.2-0.1,0.3c0.2,0.4,0.3,0.7,0.6,1.1c0.3,0.5,0.7,1,1.2,1.4c0.4,0.5,0.9,0.9,1.4,1.3c0.5,0.4,1,0.7,1.5,1.1
			c0.3,0.3,0.5,0.6,0.3,1c-0.1,0.3-0.6,0.6-1,0.5c-0.7-0.3-1.3-0.8-1.9-1.3c-0.5-0.5-1-1.1-1.3-1.7c-0.3-0.6-0.6-1.3-0.8-1.9l0-0.1
			c-0.1-0.3-0.2-0.6-0.3-1c-0.4,0.2-0.9,0.2-1.3,0.2c-0.7-0.1-1.3-0.4-1.8-0.9c-0.2-0.2-0.4-0.5-0.6-0.8c0,0.2,0,0.3,0,0.5
			c0.4,0.4,0.5,1,0.4,1.6c0.3,0.3,0.4,0.8,0.2,1.3c0.4,0.4,0.3,0.9,0.2,1.4c0.4,0.5,0.5,1.2,0.1,1.7l0,0c0.3,0.6,0.3,1.3-0.2,1.8
			c0.3,0.6,0.2,1.3-0.5,1.5c-0.3,0.1-0.5,0-0.7-0.1c0.2,0.9,0.2,1.7,0,2.6c-0.1,0.3-0.4,0.6-0.8,0.6c-0.3,0-0.5-0.1-0.7-0.4
			c0,0.4,0,0.9-0.1,1.3c-0.1,0.3-0.3,0.5-0.6,0.5c0.1,0.1,0.1,0.3,0,0.4c-0.4,0.7-1.3,0.4-1.4-0.3c-0.3-0.2-0.4-0.5-0.4-0.9
			c-0.1-0.5-0.1-1-0.2-1.5l0,0l0,0l0,0c0,0.2-0.2,0.4-0.4,0.5c0,0.4,0,0.9-0.3,1.2c-0.2,0.2-0.5,0.3-0.8,0.3c0,0,0,0-0.1,0
			c-0.6-0.1-0.9-0.6-0.8-1.2c-0.2-0.3-0.3-0.7-0.3-1c-0.5-0.3-0.5-1-0.3-1.5c-0.5-0.4-0.7-1.1-0.4-1.7c-0.4-0.5-0.5-1.3-0.2-1.9
			c-0.5-0.4-0.5-1.2,0-1.6c-0.3-0.5-0.4-1.1-0.2-1.6c-0.2-0.2-0.3-0.5-0.3-0.8c0-0.4,0.3-0.7,0.6-0.9l0-0.1c0.1,0,0.2,0,0.2-0.1
			c0.1-0.1,0.1-0.1,0.2-0.2c0.1,0,0.2,0,0.2-0.1c0.1,0,0.3-0.1,0.5-0.1c0.4,0,0.4-0.6,0-0.6c-0.1-0.1-0.1-0.1-0.2-0.1l-0.1,0
			c-0.1,0-0.3,0-0.4,0.1c-0.1,0-0.2,0.1-0.2,0.2c0,0.1-0.1,0.2-0.2,0.3c-0.1,0.1-0.3,0.1-0.5,0c-0.2-0.1-0.2-0.3-0.2-0.5
			c0.1-0.5-0.2-0.9-0.2-1.4c0-0.2,0.1-0.4,0.2-0.6c-0.2-0.4-0.3-0.8-0.1-1.3c-0.4-0.4-0.5-1.1-0.2-1.6c0,0,0,0,0,0
			c0-0.1,0.1-0.2,0.1-0.2c-0.2-0.4-0.2-0.9,0-1.2c-0.3-0.4-0.4-1,0-1.5c0,0,0-0.1,0-0.1c-0.1-0.4-0.1-0.8,0.1-1.1
			c-0.1-0.1-0.1-0.3-0.1-0.5c-0.1-0.4,0-0.9,0.1-1.3c0-0.1,0-0.1,0.1-0.2c0-0.3,0-0.6,0-0.9c-0.1-0.2-0.1-0.5-0.1-0.8l0-0.2
			c0-0.4,0-1,0.2-1.4c-0.2-0.4-0.1-0.8,0.2-1.1c-0.2-0.3-0.2-0.7,0-1.1c0-0.1,0.1-0.1,0.1-0.2c0-0.3,0.1-0.7,0.2-1
			c0.1-0.2,0.3-0.4,0.5-0.6c0,0,0-0.1,0-0.1c0-0.2,0-0.4,0.1-0.6c-0.1-0.2-0.2-0.5-0.1-0.8c0.1-0.3,0.3-0.6,0.6-0.7
			c0-0.3,0.1-0.6,0.1-0.9c-0.2-0.4,0-0.9,0.4-1.1c-0.1-0.3,0-0.6,0.2-0.9c0.1-0.1,0.2-0.2,0.3-0.2c-0.1-0.3,0-0.6,0.2-0.9
			c0.2-0.2,0.4-0.3,0.7-0.4c0.1-0.5,0.6-0.9,1.2-0.9c0.1-0.2,0.2-0.4,0.5-0.6c0.1,0,0.1,0,0.2-0.1c0.4-0.4,1.1-0.8,1.7-0.9
			c0.6-0.2,1.2-0.2,1.7,0l0,0l0,0C24.9,11.3,25.1,11.3,25.3,11.3z M20.9,48.1c-0.2,0-0.3,0.1-0.4,0.2c0,0.2,0.1,0.3,0.2,0.4
			c0.2,0.1,0.4,0.1,0.6,0.1c0.2,0,0.3-0.1,0.3-0.3c0-0.2-0.1-0.3-0.3-0.3C21.2,48.2,21.1,48.2,20.9,48.1z M19.6,45
			c-0.2,0-0.4,0.1-0.6,0.2c-0.1,0.1-0.1,0.3,0,0.4c0.1,0.1,0.3,0.1,0.4,0l0,0c0,0,0,0,0,0c0,0,0,0,0,0l0,0c0,0,0,0,0,0l0,0l0,0l0,0
			c0,0,0.1,0,0.1,0c0.2,0,0.3-0.1,0.3-0.3C19.8,45.1,19.7,45,19.6,45z M23.9,43.1c0.3-0.2,0-0.7-0.3-0.5l0,0
			c-0.2,0.1-0.4,0.1-0.6,0.1c-0.4,0-0.4,0.6,0,0.6l0.1,0C23.4,43.2,23.7,43.2,23.9,43.1z M21.4,40.9c-0.2,0-0.5-0.1-0.8-0.1l0,0
			h-0.1c-0.1,0-0.1,0-0.2,0.1c-0.1,0-0.2,0.1-0.2,0.1c-0.3,0.3,0.1,0.7,0.4,0.4c0,0,0,0,0.1,0l0,0h0.3c0,0,0.1,0,0.1,0
			c0.1,0,0.2,0,0.3,0C21.6,41.5,21.7,41,21.4,40.9z M21.1,35.2c-0.5-0.2-1-0.2-1.4,0.1c-0.3,0.2,0,0.7,0.3,0.5l0,0
			c0,0,0.1,0,0.1-0.1c0.2,0.1,0.4,0.1,0.7,0l0,0l0,0C21.1,35.8,21.4,35.3,21.1,35.2z M26.2,34.2c-0.5-0.1-0.5-0.8,0-0.7
			c1,0.1,1.9,0.6,2.6,1.3c0.3,0.4-0.2,0.9-0.5,0.5l0,0C27.7,34.7,27,34.3,26.2,34.2z M20.9,30.4c-0.1,0-0.2,0-0.3,0
			c-0.2,0-0.5,0.2-0.4,0.5c0.1,0.2,0.4,0.2,0.5,0.1c0.1,0,0.1,0,0.2,0c0.2,0,0.3,0,0.5,0.1c0.4,0.1,0.5-0.5,0.2-0.6l-0.2,0
			c-0.1,0-0.1,0-0.2,0c0,0-0.1,0-0.1,0L20.9,30.4L20.9,30.4z M17.9,25.8L17.9,25.8c-0.5-0.1-1.3,0-1.4,0.6c0,0.4,0.5,0.4,0.6,0.1
			c0.4-0.1,0.7-0.1,1.1,0c0.1-0.1,0.1-0.4-0.1-0.5C18.1,25.9,18,25.8,17.9,25.8z M29.4,24.7c-0.1-0.1-0.3-0.1-0.4,0
			c-0.1,0.1-0.1,0.1-0.2,0.2l0,0.1c0,0,0,0,0,0c0,0,0,0,0,0.1l0,0c0,0,0,0,0,0c-0.1,0.1-0.1,0.3,0,0.4c0.1,0.1,0.3,0.1,0.4,0
			c0.1-0.1,0.1-0.1,0.2-0.2l0-0.1c0,0,0,0,0,0c0,0,0,0,0-0.1l0,0c0,0,0,0,0,0C29.5,25,29.6,24.8,29.4,24.7z M23.3,23.9
			c-0.4-0.3-0.9-0.3-1.3,0c-0.3,0.3,0.1,0.7,0.4,0.4l0,0c0,0,0,0,0,0c0.1,0,0.1,0.1,0.2,0.1c0,0,0,0,0.1,0l0,0l0,0l0,0l0,0
			c0,0,0.1,0,0,0c0,0,0,0,0,0l0,0c0.1,0.1,0.3,0.1,0.4,0C23.4,24.4,23.5,24.1,23.3,23.9z M27.4,22.9L27.4,22.9
			c0.4-0.1,0.2-0.7-0.2-0.6c-0.4,0.1-0.6,0.5-0.7,0.9c0,0.2,0,0.3,0.2,0.4c0.1,0,0.3-0.1,0.4-0.2c0-0.1,0.1-0.2,0.1-0.3l0-0.1
			C27.3,23,27.3,23,27.4,22.9C27.4,23,27.4,22.9,27.4,22.9z M21.2,19.9L21.2,19.9c-0.4-0.1-0.9-0.1-1.1,0.2
			c-0.2,0.3,0.3,0.6,0.5,0.3c0,0,0,0,0,0l0,0l0.1,0c0.1,0,0.2,0,0.3,0C21.4,20.6,21.6,20,21.2,19.9z M34.1,17.6
			c0.3-0.3-0.1-0.7-0.4-0.4c-0.2,0.2-0.4,0.4-0.6,0.7c-0.1,0.1,0,0.3,0.1,0.4c0.1,0.1,0.3,0,0.4-0.1C33.7,18,33.9,17.8,34.1,17.6z
			 M30.6,16.9c-0.3,0.2-0.4,0.4-0.5,0.7C30,17.8,30.2,18,30.3,18c0.2,0,0.3,0,0.4-0.2l0,0c0-0.1,0.1-0.2,0.1-0.2
			c0-0.1,0.1-0.1,0.2-0.1c0.1,0,0.2-0.2,0.2-0.3C31,17.2,30.8,17.1,30.6,16.9z M22.6,15.6c-0.3-0.3-0.6-0.3-1-0.1
			c-0.1,0.1-0.2,0.3-0.1,0.4c0.1,0.1,0.3,0.2,0.4,0.1c0,0,0,0,0.1,0c0,0,0.1,0,0.1,0l0,0c0,0,0,0,0,0c0,0,0,0,0,0l0,0c0,0,0,0,0,0
			l0,0C22.5,16.3,22.9,15.9,22.6,15.6z"/>
		<path class="st3" d="M44.2,38.6c0.3-0.5,1-0.4,1.1,0.1c0.2,1.1-1,2.1-2,2.1c-1,0-2-0.8-1.9-1.8c0-0.3,0.4-0.2,0.5-0.1l0,0.1
			c0.3,0.4,0.7,0.9,1.3,0.8c0.2,0,0.5-0.2,0.6-0.4C44.1,39.2,44.1,38.9,44.2,38.6z M38.1,30.8c0.1,0,0.3,0,0.4,0
			c0.3,0,0.5,0.3,0.5,0.5c0,0,0,0,0,0.1l0,0l0-0.1c0,0.1,0.1,0.2,0.1,0.2c0,0.1,0,0.2,0,0.3c0.1,0,0.2,0,0.2,0l0.1,0
			c0.4,0,0.9,0.1,1.2,0.5c0.1,0.2,0,0.6-0.3,0.6c-0.4,0.1-0.8-0.2-1.2-0.2c-0.4,0-0.8,0-1.2,0.1c-0.8,0.1-1.5,0.5-2.3,0.7l-0.1,0
			l0,0c-0.1,0-0.3-0.2-0.2-0.3c0.6-0.5,1.4-0.9,2.2-1.2c-0.1-0.2-0.1-0.4-0.1-0.6c0,0,0-0.1,0-0.1l0-0.1c0,0,0-0.1,0-0.1l0,0l0,0
			C37.8,31,37.9,30.9,38.1,30.8z M46.1,30.8c0.2-0.2,0.4-0.1,0.6,0l0,0c0.2,0.1,0.3,0.2,0.4,0.4c0.1,0.2,0.2,0.3,0.2,0.5
			c0.4,0,0.8,0.1,1.1,0.5c0.1,0.1,0.2,0.3,0.1,0.4l0,0.1c-0.1,0.3-0.6,0.4-0.7,0.1l0,0c-0.2-0.4-0.8-0.3-1.1-0.3
			c-0.2,0-0.5,0.1-0.7,0.2c-0.1,0-0.2,0-0.2,0.1l-0.1,0c0,0-0.3,0.1-0.1,0.1c0,0,0.1,0,0,0.1c-0.2,0.1-0.3-0.1-0.3-0.3
			c0-0.3,0.5-0.5,0.7-0.6l0,0c0.1,0,0.2-0.1,0.3-0.1c-0.1-0.1-0.1-0.2-0.1-0.3c0-0.1-0.1-0.2-0.1-0.3c0,0,0-0.1,0-0.1l0,0
			c0,0,0-0.1,0-0.1l0,0h0C46,31,46,30.9,46.1,30.8z M43.4,34.1c0.7,0.2,1.7,0.8,1.4,1.6c-0.5,0.8-1.7,0.2-2.4,0
			c-0.6-0.2-0.8,0.6-0.3,0.8c4.4,1.7,4.4-2.9,1.4-2.8C43.2,33.7,43.2,34,43.4,34.1z M37.5,28.1l0.1,0c0.6-0.2,1.2-0.5,1.7,0
			c0.2,0.2,0.2,0.5,0.1,0.8c-0.3,0.5-0.8,0.4-1.4,0.5c-0.4,0-0.8,0.2-1.2,0.3c-0.3,0.1-0.6,0.3-0.9,0.5c-0.3,0.2-0.4,0.5-0.7,0.7
			c-0.1,0.1-0.2,0-0.3-0.1c-0.1-0.4,0.1-0.8,0.3-1.1c0.2-0.4,0.6-0.7,0.9-0.9C36.7,28.4,37.1,28.2,37.5,28.1z M46,27.7
			c1,0,1.9,0.5,2.5,1.3c0.2,0.3,0,0.7-0.2,0.8c-0.3,0.2-0.6,0-0.8-0.2l0,0c-0.3-0.4-0.7-0.7-1.2-1c-0.2-0.1-0.5-0.2-0.7-0.2l-0.1,0
			c-0.1,0-0.2,0-0.4,0c-0.1,0-0.1,0-0.2,0.1c0,0,0,0.1-0.1,0.1c-0.2-0.1-0.2-0.4,0-0.6C45.1,27.7,45.6,27.7,46,27.7z"/>
	</g>
</g>
<path class="st4" d="M32,60C16.5,60,4,47.5,4,32H0c0,17.7,14.3,32,32,32V60z M60,32c0,15.5-12.5,28-28,28v4c17.7,0,32-14.3,32-32H60
	z M32,4c15.5,0,28,12.5,28,28h4C64,14.3,49.7,0,32,0V4z M32,0C14.3,0,0,14.3,0,32h4C4,16.5,16.5,4,32,4V0z"/>
</svg>
