<?xml version="1.0" encoding="utf-8"?>
<!-- Generator: Adobe Illustrator 23.0.1, SVG Export Plug-In . SVG Version: 6.00 Build 0)  -->
<svg version="1.1" id="圖層_1" xmlns="http://www.w3.org/2000/svg" xmlns:xlink="http://www.w3.org/1999/xlink" x="0px" y="0px"
	 viewBox="0 0 64 64" style="enable-background:new 0 0 64 64;" xml:space="preserve">
<style type="text/css">
	.st0{clip-path:url(#SVGID_2_);}
	.st1{fill:#F6E04F;}
	.st2{fill-rule:evenodd;clip-rule:evenodd;fill:#FFFFFF;}
	.st3{fill-rule:evenodd;clip-rule:evenodd;fill:#241E20;}
	.st4{fill:#18191F;}
</style>
<g>
	<defs>
		<circle id="SVGID_1_" cx="32" cy="32" r="30"/>
	</defs>
	<clipPath id="SVGID_2_">
		<use xlink:href="#SVGID_1_"  style="overflow:visible;"/>
	</clipPath>
	<g class="st0">
		<path class="st1" d="M2,32C2,15.4,15.4,2,32,2s30,13.4,30,30S48.6,62,32,62S2,48.6,2,32z"/>
		<path class="st2" d="M6.1,94.8c4.6,0.1,8.9,0.3,13.4,0c7.3-0.5,28.7,0.4,33.4,0c0.4,0,1.6,0.4,1.6,0c0.2-2.5,0.3-28-0.3-29.8
			c-0.6-1.8-3.6-10.2-7.5-14.1c-1.1-1.1-2.7-1.5-3.6-2.7c-0.8-1.3-0.7-2.1-1.5-2.8c-0.3-0.3-1.1-0.4-1.7-0.9c-0.6-0.6,0-1.9-0.3-2.7
			c-0.5-2-2.3-3.3-4.3-3.7c-2.8-0.7-5.7,0-7.1,2.2c-0.5,0.8-0.2,1.8-0.8,3.1c0,1-1.1,1.2-1.8,1.6l-1.4,1.4
			c-4.2,2.4-9.2,3.7-12.9,6.8C8.1,56.4,5,60.1,3.6,64.4c-0.3,1.2-0.4,2.4-0.5,3.6C2.8,71.6,1.8,75,1,78.4c-0.9,4.3-1.8,8.9-0.5,13.2
			C0.8,92.5,5.2,94.7,6.1,94.8z"/>
		<path class="st3" d="M27.9,40.6c0-0.1,0.2-0.1,0.2,0c0.1,1.1,0,2.3-0.2,3.4c-0.1,0.5-0.1,1.1-0.2,1.6c0,0.1,0,0.1,0,0.2
			c0,0.1,0.1,0.1,0.2,0.2l0.2,0.2l0.4,0.4c0.8,0.8,1.7,1.6,2.5,2.4l1.2,1.2c0.4,0.4,0.9,0.8,1.3,1.2c0.2,0.2,0.2,0.5,0,0.8
			c-0.1,0.1-0.3,0.2-0.4,0.2c0.1,0.1,0.1,0.2,0.2,0.3c0.1,0.2-0.2,0.5-0.4,0.4c-0.3-0.1-0.5-0.3-0.9-0.4c-0.3-0.1-0.6-0.1-1-0.1
			c-0.1,0-0.3,0.1-0.4,0.1c1.5,0.7,3.1,1.1,4.8,1.1c0.3,0,0.7,0,1,0c0.6,0,1.1-0.1,1.7-0.3c0.4-0.1,0.9-0.2,1.3-0.4
			c0.2-0.1,0.4-0.2,0.6-0.3l0,0c0,0,0.9-0.5,0.9-0.6c0-0.1,0-0.1,0-0.2c0-0.1-0.1-0.1-0.1-0.1c-0.3-0.1-0.5-0.2-0.8-0.2
			c-0.6,0-1.3,0.5-1.8,0.8c-0.6,0.3-1.1,0.8-1.6,1.1c0,0,0,0,0,0c-0.1,0-0.1-0.1-0.1-0.1c0.4-0.6,0.9-1.1,1.5-1.5l0.2-0.2
			c0.5-0.4,1.1-0.8,1.7-0.9c0.8-0.1,1.6,0.4,2.2,0.6l1.2,0.5c0.2,0.1,0.4,0.2,0.7,0.3l-0.5-1.6c-0.3-0.8-0.5-1.6-0.8-2.4l0-0.2
			c-0.2-0.8-0.5-1.6-0.9-2.4c-0.1-0.2-0.2-0.3-0.3-0.5c-0.1-0.2-0.2-0.4-0.3-0.5c-0.3-0.3-0.7-0.5-1.1-0.6c-0.1,0-0.1-0.2,0-0.2
			c0.4,0,0.8,0.1,1.2,0.2l0.2,0.1c0.3,0.2,0.7,0.3,0.9,0.6c0.6,0.7,0.9,1.5,1.2,2.3l0.1,0.2c0.1,0,0.8,0.2,0.9,0.2
			c2.7,1.1,4.7,3.2,6.2,5.7c1.6,2.7,2.5,5.8,3.3,8.8c0.2,0.9,0.4,1.9,0.7,2.8c-0.9,0.4-1.9,0.5-2.8,1.1c-0.3,0.2,0,0.7,0.3,0.5
			c0.8-0.5,1.7-0.6,2.6-1c0.5,2.2,0.9,4.4,1.2,6.6c1.1,6.8,1.8,13.6,1.7,20.5c0,0.2,0,0.3-0.1,0.5c0,0,0.1-0.1,0.1-0.1
			c0.3-0.4,1,0,0.7,0.4l0,0.1c-0.2,0.3-0.4,0.6-0.8,0.7c-0.4,0.2-0.8,0.2-1.2,0.2c-1.4,0-2.8,0.1-4.1,0.1c-0.2-1.5-0.3-3-0.5-4.4
			c-0.1-0.4-0.6-0.2-0.6,0.2c0.3,1.4,0.3,2.9,0.5,4.3c-3,0-5.9,0-8.9,0c-4,0-8,0-12,0l-1.7,0c-4.6,0-9.2,0-13.8,0L14,95
			c-0.4-2.6-0.7-5.2-0.7-7.8c0-0.4-0.6-0.4-0.6,0c0,2.6,0.3,5.2,0.7,7.8c-1.1,0-2.2,0-3.3,0l-0.6,0c-1.1,0-2.2,0.1-3.3,0
			c-1.2-0.1-2.5-0.3-3.6-0.9c-0.5-0.3-0.9-0.6-1.3-1c0.4-0.2,0.8-0.4,1.1-0.7c0.3-0.2,0-0.7-0.3-0.5c-0.4,0.3-0.8,0.5-1.2,0.7
			c-0.3-0.4-0.5-0.8-0.7-1.3c-0.3-0.7-0.4-1.6-0.5-2.3c-0.1-0.9-0.2-1.9-0.2-2.8c0-2,0.2-3.9,0.5-5.9c0.3-1.9,0.6-3.7,1-5.6l0.1-0.3
			c0.4-1.8,0.7-3.6,1.2-5.4c0.4-1.7,0.9-3.3,1.4-5c0.5,0.3,1,0.6,1.5,0.9c0.3,0.2,0.6-0.3,0.3-0.5c-0.5-0.3-1.1-0.6-1.6-1
			c0.6-1.7,1.4-3.4,2.2-5.1c1.8-3.3,4.1-6.2,7.2-8.4c1.5-1.1,3.2-2,4.9-2.6c1.8-0.7,3.6-1,5.5-1.2c0.1,0,0.1,0,0.1,0.1l0,0l0.1,0
			c0-0.2,0.1-0.4,0.2-0.5c0.2-0.4,0.7-0.6,1.1-0.9l0.1-0.1c0.4-0.3,0.9-0.5,1.4-0.6c0,0,0,0,0,0c-0.3,0.4-0.8,0.7-1.2,1l-0.1,0.1
			c-0.3,0.3-0.8,0.6-0.8,1c0,0.5,0.1,1.1,0.1,1.6c0,0.5,0.1,1.1,0.1,1.6c0.1,1.9,0,3.8-0.2,5.7l0.7-0.5c1.2-0.8,2.3-1.6,3.5-2.3
			c0.7-0.4,1.5-0.8,2.4-0.8c0.2,0,0.5,0,0.8,0.1c-0.3-0.3-0.6-0.6-0.8-0.8c-0.5-0.4-0.9-0.9-1.4-1.3l-1.3-1.3l-1.3-1.3
			c-0.4-0.4-0.9-0.8-0.8-1.4c0-0.5,0.3-1,0.5-1.5c0-0.1,0-0.1,0.1-0.2C27.4,43,27.6,41.8,27.9,40.6z M44.9,90.6
			c-0.3-0.3-0.7,0.1-0.4,0.4l0.1,0.1c0.2,0.2,0.5,0.5,0.6,0.8l0,0c0.2,0.3,0.7,0,0.5-0.3C45.6,91.3,45.3,91,44.9,90.6z M33.3,90.5
			c-0.9-0.2-1.7-0.2-2.6,0c-0.4,0.1-0.2,0.6,0.2,0.6c0.8-0.1,1.5-0.1,2.2,0C33.5,91.2,33.7,90.6,33.3,90.5z M21.6,84.5
			c-0.4-0.1-0.5,0.5-0.2,0.6l0.2,0c0.6,0.2,1.2,0.3,1.9,0.1c0.4-0.1,0.2-0.6-0.1-0.6l0,0C22.7,84.8,22.2,84.7,21.6,84.5z M42.3,80.7
			c-0.3-0.3-0.7,0.2-0.4,0.4c0.3,0.3,0.8,0.6,1.2,0.6c0.4,0,0.4-0.6,0-0.6l0,0C42.8,81.1,42.6,80.9,42.3,80.7z M7.2,79.1
			c0.3-0.2,0-0.7-0.3-0.5l-2.1,1c-0.3,0.2,0,0.7,0.3,0.5L7.2,79.1z M48,79.2c-0.4,0-0.4,0.6,0,0.6c0.4,0,0.7,0.1,1.1,0.3
			c0.3,0.2,0.6-0.3,0.3-0.5C48.9,79.4,48.4,79.2,48,79.2z M28.7,76.3c0.3-0.2,0-0.7-0.3-0.5c-0.4,0.3-0.8,0.6-1.3,0.9L27,76.8
			c-0.3,0.2,0,0.7,0.3,0.5C27.8,77,28.2,76.6,28.7,76.3z M50.9,72c-0.4,0-0.4,0.6,0,0.6l0.1,0c0.3,0,0.7,0,0.9,0.1l0,0
			c0.3,0.2,0.6-0.4,0.3-0.5C51.8,72,51.4,72,50.9,72z M17.8,71.6L17.8,71.6c0.4-0.1,0.3-0.7-0.1-0.6c-0.5,0.2-1,0.6-1.4,0.9
			c-0.3,0.2,0,0.7,0.3,0.5C16.9,72.1,17.3,71.7,17.8,71.6z M40.1,70L40.1,70c0.4-0.2,0.1-0.7-0.2-0.6c-0.3,0.1-0.5,0.3-0.8,0.5
			l-0.1,0c-0.3,0.2,0,0.7,0.3,0.5C39.6,70.3,39.9,70.1,40.1,70z M31.1,64.2L31.1,64.2c-0.3-0.3-0.8,0.1-0.5,0.4
			c0.7,0.7,1.5,1.2,2.3,1.7l0.1,0.1c0.3,0.2,0.6-0.3,0.3-0.5l-0.2-0.1C32.4,65.3,31.7,64.8,31.1,64.2z M14.6,63.7
			c0.2-0.3-0.3-0.6-0.5-0.3l0,0c-0.2,0.3-0.5,0.6-0.8,0.9l-0.1,0c-0.2,0.2-0.5,0.5-0.8,0.5c-0.4,0-0.4,0.6,0,0.6
			c0.4,0,0.7-0.3,1-0.5C13.9,64.5,14.2,64.1,14.6,63.7z M46.3,61.5c0.3-0.3-0.1-0.7-0.4-0.4l0,0c-0.5,0.5-1.3,0.6-1.9,0.8
			c-0.4,0.1-0.2,0.7,0.2,0.6l0.3-0.1C45.1,62.2,45.8,62,46.3,61.5z M34.5,57.7c-0.4-0.1-0.5,0.5-0.2,0.6c0.6,0.2,1.2,0.4,1.8,0.7
			c0.3,0.2,0.6-0.3,0.3-0.5C35.8,58.1,35.2,57.9,34.5,57.7z M40.6,45.1C40.6,45.1,40.6,45.1,40.6,45.1c0.7,0.2,0.4,1.1,0.2,1.6
			l0,0.1c-0.3,0.8-0.8,1.7-1.3,2.4c-0.5,0.8-1.1,1.5-1.7,2.3c-0.3,0.3-0.6,0.6-0.8,0.9l-0.1,0.1c-0.3,0.3-0.7,0.8-1.1,0.7
			c-0.5-0.1-0.8-0.6-0.4-1c0.3-0.3,0.6-0.5,0.9-0.8c0.3-0.3,0.6-0.5,0.8-0.8c0.5-0.6,1.1-1.1,1.5-1.8c0.5-0.6,0.9-1.2,1.3-1.8
			l0.1-0.1C40.1,46.5,40.8,45.8,40.6,45.1z M16.9,51.4c-0.3-0.2-0.6,0.3-0.3,0.5c0.6,0.4,1.1,0.9,1.7,1.2c0.3,0.2,0.6-0.3,0.3-0.5
			l0,0C18,52.3,17.4,51.8,16.9,51.4z"/>
		<path class="st3" d="M50.4,45c-0.9-4-1.4-8-1.9-12.1c-0.2-2-0.4-3.9-0.6-5.9c-0.2-1.8-0.4-3.7-0.9-5.4c-0.4-1.7-1.1-3.3-2-4.7
			c-0.9-1.3-2-2.5-3.3-3.4c-2.6-1.9-5.8-2.9-9-2.6c-0.5,0.1-1,0.1-1.4,0.2c0.1,0,0.3-0.1,0.5-0.1c0,0,0-0.1,0-0.1
			c-12.9,1.2-16,23.7-16.3,28.2c0,0.4,0,0.7-0.1,1.1c-0.1,0.8-0.2,1.6-0.2,2.4c0,0.9,0,1.8,0.1,2.7c0.1,0.9,0.2,1.9,0.6,2.7
			c0.2,0.5,11.4-0.2,11.5-0.8c0.2-1.3,0.4-2.6,0.3-3.8c0-0.6-0.1-1.2-0.2-1.8c0-0.2-0.1-0.5-0.2-0.7c1-1.9,2.1-3.8,3.3-5.7
			c2.4-3.9,4.9-7.6,6.9-11.7c1-2.1,1.9-4.2,2.4-6.5l0.1,0c0,0,0,0.1,0,0.1c2.1,1.5,3.5,3.7,4.5,6.1c1.1,2.8,1.6,5.8,1.5,8.7
			c-0.1,4.7-1.9,10.6-7,12.1c-1.2,0.3-2.4,0.4-3.6,0.2c-0.6-0.1-1.1-0.3-1.6-0.6c-0.6-0.3-1-0.7-1.5-1.1c-0.5-0.3-1,0.3-0.8,0.8
			c0.6,1,1.9,1.7,3,2c1.2,0.3,2.5,0.3,3.7,0.1c0.1,0,0.2,0,0.3-0.1c0,0.3,0.2,0.6,0.4,0.9c0.1,0.1,0.2,0.2,0.3,0.3
			c0,0.3,0.2,0.6,0.5,0.7c1.7,0.3,8.6-0.6,10.3-1.1C50.2,45.9,50.5,45.5,50.4,45z"/>
		<path class="st2" d="M46,30.6c-0.1-5.9-1.6-12.4-6.6-16c-0.3-0.2-0.8-0.1-1.1,0.1c-0.2,0-0.4,0.2-0.5,0.4
			c-3,5.4-6.1,10.7-9.3,15.9c-2.1,3.4-4.6,6.8-5,10.8c-0.1,0.1-0.6,0.7-0.3,0.6c0.1-0.1,0.3-0.1,0.4-0.2c0.4,0.6,1.3,0.5,1.5-0.2
			c0.8,0,1.5,0.2,2.3,0.4c1.8,0.6,3.6,1.1,5.4,1.5c6,1.6,12.5-0.4,13-7.4C46.4,35.9,46.1,31.9,46,30.6z"/>
		<path class="st3" d="M39.2,41l0.2,0c0.6-0.2,1.2-0.4,1.7-0.1c0.2,0.1,0.2,0.4,0.1,0.5c-0.4,0.5-1.1,0.4-1.7,0.4l0,0
			c-0.6,0-1.2,0-1.8-0.1c-0.1,0-0.1-0.1,0-0.2C38.2,41.3,38.7,41.2,39.2,41z M40.2,32.3c0.6,0.3,1.4,1.1,0.8,2
			c-0.7,0.7-1.7-0.1-2.2-0.5c-0.5-0.3-1,0.5-0.6,0.8c3.7,2.7,5.1-2.2,2.3-2.7C40.2,31.8,40.1,32.2,40.2,32.3z M44.1,27.8
			c0.9,0,0.9,1.4,0,1.4c-0.3,0-0.5,0-0.8,0c0.2,0.6,0.1,1.3-0.2,1.7c-0.2,0.3-0.6,0.4-0.9,0.1c-0.5-0.5-0.5-1.1-0.4-1.7l0-0.1
			c0,0,0-0.1,0-0.1c-0.9,0-1.8,0-2.6,0l-1.3,0c-0.9,0-1.7,0-2.6,0c0,0,0,0,0,0c0.1,0.1,0.1,0.3,0.1,0.4c0,0.2,0,0.4,0,0.6
			c0,0.2-0.1,0.3-0.2,0.5l0,0c0,0.2-0.1,0.3-0.2,0.5c0,0-0.1,0.1-0.1,0.1c-0.1,0.1-0.2,0.1-0.3,0.1c-0.1,0-0.1,0-0.2,0
			c-0.1,0-0.2,0-0.3-0.1c-0.1,0-0.2-0.1-0.2-0.1c0,0-0.1,0-0.1,0c-0.2-0.1-0.2-0.3-0.2-0.5c0,0,0,0,0,0c0,0,0-0.1,0-0.1
			c-0.1-0.3,0-0.7,0.1-1c0-0.1,0-0.2,0.1-0.3c-0.2,0-0.3,0-0.5,0c-0.4,0-0.9,0-1.3-0.1c0,0,0-0.1,0-0.1c0.4-0.3,0.9-0.3,1.4-0.4l0,0
			c0.5-0.1,1-0.2,1.6-0.3c1-0.1,2.1-0.2,3.1-0.3C39.9,27.9,42,27.9,44.1,27.8z"/>
		<path class="st3" d="M44.3,26.8c1.8,0,2.7,0.4,3.1,0.4l0,0c0.2,0,0.3,0,0.4,0.1c0.5,0.2,0.6,0.8,0.3,1.1c0,0.7,0.1,1.6-0.1,2.3
			c-0.2,3-1.6,3.6-2.4,3.8c-0.4,0.1-0.9,0.1-1.3,0c-0.7,0-1.5-0.3-2.1-0.7c-0.9-0.6-1.5-1.4-1.7-2.5c-0.1-0.5-0.1-1-0.1-1.5l0-0.1
			c-0.3-0.1-0.6-0.2-1-0.2c-0.2,0-0.3,0-0.5,0c-0.2,0-0.3,0-0.5,0.1c-0.2,0-0.3,0.1-0.5,0.3l0,0.2c0,0.5-0.1,0.9-0.2,1.4
			c-0.1,0.7-0.4,1.3-0.9,1.8c-0.2,0.2-0.4,0.5-0.6,0.7c-0.9,0.7-2.1,0.9-3.2,0.8c-2.3-0.2-3.6-2-3.9-2.8l0,0
			c-0.2-0.6-0.4-1.3-1.1-1.4l-0.1,0c-0.3-0.1-0.6-0.1-0.8-0.4c-0.1-0.1-0.1-0.3-0.1-0.4c-0.1,0-0.2,0-0.3,0c-0.9,0.2-6,0.3-6.4,0.3
			c0,0-0.8,0.3-1.1,0.1c-0.2-0.2-0.3-0.4-0.2-0.7c0.2-0.4,1.1-0.6,1.5-0.7c0,0,6.3,0.1,6.7,0c0.3-0.3,0.8-0.2,1.2-0.3
			c0.3-0.2,0.8-0.4,1.2-0.5c0.1,0,0.2-0.1,0.2-0.1c0.7-0.3,1.4-0.4,2.2-0.5c0.8-0.1,1.5,0,2.3,0.1c0.3,0,0.6,0.1,1,0.2
			c0.6,0.1,1.1,0.2,1.7,0.3l0.1,0c0.6,0.2,1.2,0.3,1.8,0.2c0.5-0.1,1-0.3,1.4-0.5l0.1,0C41.6,27.1,43.2,26.8,44.3,26.8z M35.4,28.5
			c-0.4-0.1-0.5,0.5-0.2,0.6c0.3,0.1,0.5,0.2,0.6,0.4l0,0c0.2,0.3,0.7,0,0.5-0.3C36.2,28.8,35.8,28.5,35.4,28.5z M46.4,28.1
			c-0.1-0.1-0.3,0-0.4,0.1c-0.1,0.1,0,0.3,0.1,0.4l0,0c0.1,0.1,0.2,0.2,0.2,0.4l0,0c0,0.4,0.6,0.4,0.6,0
			C46.9,28.6,46.7,28.3,46.4,28.1z"/>
	</g>
</g>
<path class="st4" d="M32,60C16.5,60,4,47.5,4,32H0c0,17.7,14.3,32,32,32V60z M60,32c0,15.5-12.5,28-28,28v4c17.7,0,32-14.3,32-32H60
	z M32,4c15.5,0,28,12.5,28,28h4C64,14.3,49.7,0,32,0V4z M32,0C14.3,0,0,14.3,0,32h4C4,16.5,16.5,4,32,4V0z"/>
</svg>
