<?xml version="1.0" encoding="utf-8"?>
<!-- Generator: Adobe Illustrator 23.0.1, SVG Export Plug-In . SVG Version: 6.00 Build 0)  -->
<svg version="1.1" id="圖層_1" xmlns="http://www.w3.org/2000/svg" xmlns:xlink="http://www.w3.org/1999/xlink" x="0px" y="0px"
	 viewBox="0 0 64 64" style="enable-background:new 0 0 64 64;" xml:space="preserve">
<style type="text/css">
	.st0{clip-path:url(#SVGID_2_);}
	.st1{fill:#F6E04F;}
	.st2{fill-rule:evenodd;clip-rule:evenodd;fill:#FFFFFF;}
	.st3{fill-rule:evenodd;clip-rule:evenodd;fill:#241E20;}
	.st4{fill:#18191F;}
</style>
<g>
	<defs>
		<circle id="SVGID_1_" cx="32" cy="32" r="30"/>
	</defs>
	<clipPath id="SVGID_2_">
		<use xlink:href="#SVGID_1_"  style="overflow:visible;"/>
	</clipPath>
	<g class="st0">
		<path class="st1" d="M2,32C2,15.4,15.4,2,32,2s30,13.4,30,30S48.6,62,32,62S2,48.6,2,32z"/>
		<path class="st2" d="M6.6,96.2c2.5,0,4.9,0.1,7.4,0.1c10.1,0,20.4,0,30.6-0.4c2.9-0.1,3.6-0.1,6.5-0.3c1.7,0,6.8-0.1,6.5-2.5
			c-0.1-4.3-1.2-8.6-1.5-12.8c-0.6-8-1.2-16.3-4.4-23.9c-0.7-1.8-2.3-3-3.9-4c-1.6-1.1-2-2.4-3.5-3.7c-0.3-0.3-2.1-0.4-3-1.1
			c-1.4-1-2.1-2.7-2.6-2.9c-0.4-0.2-0.4-1.6-1.1-2.1c-1-0.7-4.3-1.2-5.5-1.3c-1.1-0.1-3.1,0.1-4.2,0.5c-1.8,0.7-2.5,2-3.3,3.7
			C14.2,48.7,4.8,54.1,1.9,65c-2.5,9.1-2.6,19-1.6,28.3c0.2,0.7,0.1,1.8,0.7,2.2C-1.2,95.7,6.3,96.1,6.6,96.2z"/>
		<path class="st3" d="M53.6,87.1c-0.2-0.1-0.4-0.2-0.6-0.2c-0.4,0-0.4-0.6,0-0.6c0.3,0,0.6,0.2,0.9,0.3
			C54.2,86.8,53.9,87.3,53.6,87.1z M52.9,70.3c0.3,0,0.5,0,0.7,0.2c0.1,0.1,0.1,0.3,0,0.4c-0.1,0.1-0.3,0.1-0.4,0c0,0,0,0,0,0
			c0,0,0,0,0,0c0,0,0,0,0,0c0,0-0.1,0-0.1,0c0,0-0.1,0-0.1,0c0,0-0.1,0-0.1,0c-0.2,0-0.3-0.1-0.3-0.3C52.6,70.5,52.8,70.3,52.9,70.3
			z M50.1,77c-0.1,0.4-0.7,0.2-0.6-0.2c0.1-0.5,0.1-1.1,0-1.6c-0.1-0.4,0.5-0.5,0.6-0.2C50.3,75.7,50.3,76.4,50.1,77z M49.4,55.6
			c-0.4-0.1-0.9-0.1-1.3-0.1c-0.4,0-0.4-0.6,0-0.6c0.5,0,1,0,1.5,0.1C49.9,55.1,49.8,55.7,49.4,55.6z M47.9,70.1
			c-0.3-0.1-0.5-0.3-0.8-0.4c-0.3-0.2,0-0.7,0.3-0.5l0.8,0.4C48.5,69.8,48.2,70.3,47.9,70.1z M47.8,81.9c-0.3,0.5-0.8,0.8-1.3,0.9
			c-0.4,0.1-0.5-0.5-0.2-0.6c0.4-0.1,0.7-0.3,1-0.6C47.5,81.3,48,81.6,47.8,81.9z M45.7,60.9c-0.1-0.2-0.2-0.2-0.4-0.2
			c-0.4,0-0.4-0.6,0-0.6c0.4,0,0.7,0.2,0.9,0.5C46.4,60.9,45.9,61.2,45.7,60.9z M41.9,64.9c-0.1,0.1-0.3,0.1-0.4,0
			c-0.1-0.1-0.1-0.1-0.2-0.2c0,0,0-0.1-0.1-0.1c0,0,0,0,0,0c0,0,0,0,0,0c-0.1-0.1-0.1-0.3,0-0.4c0.1-0.1,0.3-0.1,0.4,0
			c0.1,0.1,0.1,0.1,0.2,0.2c0,0,0,0.1,0.1,0.1c0,0,0,0,0,0c0,0,0,0,0,0C42.1,64.6,42.1,64.8,41.9,64.9z M41.6,73.7
			c-0.4,0.2-0.8,0.2-1.2,0c-0.1-0.1-0.2-0.3-0.1-0.4c0.1-0.1,0.3-0.2,0.4-0.1c0.2,0.1,0.4,0.1,0.6,0c0.1-0.1,0.3,0,0.4,0.1
			C41.8,73.4,41.8,73.7,41.6,73.7z M40.6,80c-0.1,0.2-0.2,0.2-0.4,0.2c-0.2,0-0.3-0.1-0.3-0.3c0-0.1,0.1-0.2,0.1-0.2c0,0,0,0,0,0
			c0-0.2,0.1-0.3,0.3-0.3c0.2,0,0.3,0.1,0.3,0.3C40.6,79.8,40.6,79.9,40.6,80z M39,89.9c-0.5,0-0.9,0.1-1.4,0.1
			c-0.4,0-0.4-0.6,0-0.6c0.5,0,0.9-0.1,1.4-0.1C39.4,89.3,39.4,89.9,39,89.9z M37.1,51.6c-0.3,0.3-0.6,0.4-1,0.6
			c-0.3,0.2-0.6-0.3-0.3-0.5c0.3-0.1,0.6-0.2,0.8-0.5C36.9,51,37.3,51.4,37.1,51.6z M36.3,58.5c-0.2-0.1-0.4-0.2-0.6-0.2
			c-0.4,0-0.4-0.6,0-0.6c0.3,0,0.6,0.2,0.9,0.3C36.9,58.2,36.6,58.7,36.3,58.5z M32.7,86.1c-0.1-0.2-0.2-0.2-0.4-0.2
			c-0.4,0-0.4-0.6,0-0.6c0.4,0,0.7,0.2,0.9,0.5C33.4,86.2,32.9,86.5,32.7,86.1z M31.5,73.2c-0.1-0.1-0.1-0.3,0-0.4
			c0.1-0.1,0.3-0.3,0.4-0.4c0.1-0.1,0.3-0.1,0.4,0c0.1,0.1,0.1,0.3,0,0.4c-0.1,0.1-0.3,0.3-0.4,0.4C31.8,73.3,31.6,73.3,31.5,73.2z
			 M30,93.4c-0.4,0-0.8-0.1-1.2-0.3c-0.4-0.1-0.2-0.7,0.2-0.6c0.4,0.1,0.7,0.2,1.1,0.2C30.4,92.8,30.4,93.4,30,93.4z M28.1,80.6
			c-0.4,0-0.7-0.2-1-0.5c-0.3-0.3,0.1-0.7,0.4-0.4c0.2,0.2,0.3,0.3,0.6,0.3C28.5,80,28.5,80.6,28.1,80.6z M29.3,64.2
			c0,0.2,0.1,0.3,0.2,0.4c0.3,0.3-0.2,0.7-0.4,0.4c-0.2-0.2-0.3-0.5-0.3-0.9C28.7,63.8,29.3,63.8,29.3,64.2z M24.7,51.2
			c-0.1-0.2-0.3-0.5-0.5-0.7c-0.3-0.2,0-0.7,0.3-0.5c0.3,0.2,0.6,0.5,0.8,0.9C25.4,51.2,24.9,51.5,24.7,51.2z M24,57.4
			c-0.1,0-0.3,0-0.4-0.1c-0.1,0-0.1,0-0.2,0c0,0-0.1,0-0.1,0c-0.2,0-0.3-0.1-0.3-0.3c0-0.2,0.1-0.3,0.3-0.3c0.2,0,0.4,0.1,0.6,0.1
			C24.3,56.8,24.3,57.4,24,57.4z M22,66.9h-0.6c-0.4,0-0.4-0.6,0-0.6H22C22.4,66.3,22.4,66.9,22,66.9z M21.3,93.3
			c-0.2,0.1-0.4,0.2-0.6,0.3c-0.3,0.3-0.7-0.2-0.4-0.4c0.2-0.2,0.5-0.3,0.7-0.4c0.1-0.1,0.3,0,0.4,0.1C21.5,93,21.4,93.2,21.3,93.3z
			 M19.8,85.8C19.8,85.8,19.8,85.8,19.8,85.8c-0.2,0-0.3,0-0.4,0c-0.4,0-0.4-0.6,0-0.6c0.3,0,0.6,0,0.9,0.2c0.1,0.1,0.1,0.3,0,0.4
			C20.2,85.9,20,85.9,19.8,85.8C19.9,85.8,19.8,85.8,19.8,85.8z M19.4,75.6c0.1-0.2,0.1-0.3,0.1-0.5c0-0.4,0.6-0.4,0.6,0
			c0,0.3,0,0.5-0.2,0.8c-0.1,0.1-0.3,0.2-0.4,0.1C19.4,76,19.4,75.8,19.4,75.6z M17.7,61.6c-0.3,0.1-0.7,0.3-1,0.5
			c-0.3,0.2-0.6-0.3-0.3-0.5c0.3-0.2,0.7-0.4,1.1-0.5C17.9,60.9,18.1,61.5,17.7,61.6z M15.7,51.6c-0.3,0-0.5,0.1-0.8,0.2
			c-0.3,0.2-0.6-0.3-0.3-0.5c0.3-0.2,0.7-0.3,1.1-0.3C16.1,51,16.1,51.6,15.7,51.6z M14.8,78.4c-0.1,0-0.2-0.1-0.2-0.1c0,0,0,0,0,0
			c-0.2,0-0.3-0.1-0.3-0.3c0-0.2,0.1-0.3,0.3-0.3c0.1,0,0.2,0,0.3,0c0.2,0.1,0.2,0.2,0.2,0.4C15.1,78.3,15,78.4,14.8,78.4z
			 M13.3,57.8c-0.4,0.1-0.5-0.5-0.2-0.6c0.4-0.1,0.9-0.2,1.3-0.4c0.4-0.1,0.5,0.5,0.2,0.6C14.2,57.5,13.8,57.6,13.3,57.8z M12,69
			c-0.1,0.4-0.7,0.2-0.6-0.2c0.1-0.4,0.1-0.7,0.1-1.1c0-0.4,0.6-0.4,0.6,0C12.1,68.2,12.1,68.6,12,69z M8,82.5
			c0,0.1-0.1,0.3-0.3,0.3c-0.2,0-0.3-0.1-0.3-0.3c0-0.3,0.3-0.5,0.6-0.6c0.2,0,0.3,0.1,0.3,0.3C8.3,82.4,8.2,82.5,8,82.5z M6,65.4
			c-0.3,0.1-0.7,0.2-0.9,0.4c-0.3,0.3-0.7-0.2-0.4-0.4c0.3-0.3,0.7-0.5,1.2-0.6C6.2,64.7,6.4,65.3,6,65.4z M4.6,77
			c-0.1,0.1-0.3,0.2-0.4,0.1C4,77,3.8,77,3.6,77c-0.4,0-0.4-0.6,0-0.6c0.3,0,0.6,0,0.9,0.2C4.7,76.6,4.7,76.8,4.6,77z M3.9,91
			c-0.2,0-0.3-0.1-0.3-0.3c0-0.2,0.1-0.3,0.3-0.3c0-0.1,0.1-0.3,0.3-0.3c0.2,0,0.3,0.1,0.3,0.3C4.4,90.8,4.2,91,3.9,91z M58.2,93.3
			c-0.1-0.4-0.3-0.7-0.5-1c-0.1-0.1-0.1-0.2-0.1-0.3c0,0.1-0.1,0.2-0.3,0.2c-0.2,0-0.5,0-0.8,0.1c-0.1,0.1-0.3,0-0.4-0.1
			c-0.1-0.1,0-0.3,0.1-0.4c0.3-0.2,0.7-0.2,1.1-0.2c0.1,0,0.2,0,0.2,0.1c0.1-1.9,0.1-3.8,0-5.7c-0.1-2-0.5-4-0.8-6
			c-0.2-1-0.4-1.9-0.3-2.9c0-1,0.5-1.9,0.2-2.9c-0.1-0.4-0.3-0.8-0.5-1.1c-0.1-0.4-0.1-0.8-0.1-1.3c0.1-0.9,0.4-1.8,0-2.6
			c-0.2-0.4-0.4-0.7-0.5-1.1c-0.2-0.5-0.1-1-0.2-1.5c-0.1-1-0.1-2.1-0.1-3.1c0-0.5-0.1-0.9-0.3-1.3c-0.2-0.4-0.5-0.8-0.6-1.2
			c-0.1-0.4-0.1-0.9-0.2-1.3c-0.1-0.5-0.2-0.9-0.3-1.3c-0.5-1.7-1.6-3.2-2.7-4.6c-1.3-1.4-2.8-2.5-4.4-3.5c-0.8-0.5-1.7-1-2.5-1.6
			c0,0.1-0.1,0.2-0.2,0.2c-0.3,0.1-0.7,0.2-0.9,0.4c-0.3,0.3-0.7-0.2-0.4-0.4c0.3-0.3,0.7-0.4,1-0.5c-0.4-0.2-0.8-0.5-1.2-0.6
			c-0.4-0.1-0.9,0-1.2-0.3c-0.2-0.2-0.3-0.6-0.4-0.9c-0.1-0.4-0.2-0.8-0.4-1.1c-0.1-0.2-0.2-0.5-0.4-0.7c-0.1-0.3-0.2-0.6-0.5-0.8
			c-0.7-0.5-1.5,0-1.8,0.6c-0.2,0-0.5,0.1-0.8,0.1c-0.5,0-1,0-1.5,0c-1,0-1.9-0.1-2.9-0.2c-1.7-0.2-3.4-0.7-5.1-1.1c0,0,0,0,0-0.1
			c-0.4-0.6-1.3-0.5-1.8-0.3c-0.2,0.1-0.5,0.2-0.6,0.5c-0.1,0.1-0.3,0.2-0.4,0.4c-0.2,0.3-0.3,0.8-0.7,0.8c-0.2,0-0.5,0-0.7,0
			c-0.3,0-0.6,0.1-0.8,0.3c-2.1,0.9-4.3,1.9-6.6,2.3c-0.5,0.1-1.1,0.2-1.6,0.5c-0.4,0.2-0.7,0.6-1,0.9c-0.3,0.3-0.6,0.4-1,0.5
			c-0.5,0.1-1,0.2-1.4,0.6c-0.3,0.3-0.5,0.7-0.8,1.1c-0.3,0.4-0.6,0.6-1,0.8c-0.9,0.5-1.8,1.1-2.5,1.9C4.9,55.2,4,57.3,3,59.3
			c-1,2.2-2,4.3-2.7,6.6c-0.7,2.3-1.1,4.6-1.2,6.9c-0.2,2.5-0.2,4.9-0.4,7.4c-0.1,1.2-0.1,2.5-0.2,3.7c-0.1,1.2-0.1,2.4-0.1,3.7
			c0,2.4,0.5,4.7,1.3,6.9c0.2,0.5,0.4,1.1,0.7,1.6c0.2,0.5,0.9,0.4,1.2,0c0.1-0.1,0.1-0.2,0.1-0.3c0.6,0,1.2,0,1.8,0
			c1,0.1,2.1,0.2,3.1,0.2c2.1,0.1,4.2,0.2,6.2,0.3c0.2,0,0.4,0,0.6,0c-1.5-4.6-1.3-9.5-1.5-14.3c0-0.4,0.6-0.4,0.6,0
			c0.2,4.8,0,9.8,1.6,14.4c0.6,0,1.2,0.1,1.8,0.2c0.5,0.1,1,0.1,1.4,0.1c0.5,0,1.1-0.2,1.6-0.3c1-0.2,1.9-0.1,2.9,0
			c1,0.1,2.1,0.2,3.1,0.2c4.2,0.2,8.4,0.4,12.6,0.1c1-0.1,2-0.2,3-0.3c1-0.1,2.1-0.4,3.1-0.5c1-0.1,2,0.2,3,0.3
			c1,0.1,2.1-0.2,3.1-0.3c0.3,0,0.7-0.1,1-0.1c-0.4-3-0.7-5.9-0.9-8.9c0-0.4,0.6-0.4,0.6,0c0.2,2.9,0.5,5.9,0.9,8.8
			c1.8-0.2,3.5-0.4,5.3-0.7c0.5-0.1,1-0.2,1.3-0.7C58.3,94.1,58.3,93.7,58.2,93.3z"/>
		<path class="st2" d="M44.8,30.7c-0.2-1.4,0-4.4,0.1-4.5c0.1-1.1-0.4-5.6-1.4-5.2c-1.7-1.3-3.9-1.6-6-1.8c-4.4-0.3-9,0.4-12.3,3.3
			c-1.7,1.5-3.3,3.7-3.2,6c-1.5,2.2-3.6,5.2-1.8,7.7c0.6,0.8,1.7,1.1,2.5,1.7c1.6,1.3,2.6,3.2,4.3,4.5c4.3,3.9,11.7,4.7,15.9,0.3
			c3.3-3.2,2.8-8,2.2-12.1C44.6,27.9,45.1,33.4,44.8,30.7z"/>
		<path class="st3" d="M31.6,13.2c1.2-0.2,2.4-0.4,3.5-0.3l0.1,0c0.9,0,2,0.1,2.8,0.6c0,0,0.1-0.1,0.2,0c0.9,0.4,1.9,0.8,2.9,1.1
			c1,0.3,2,0.5,3,0.6c0.4,0,0.7,0.4,0.5,0.8c-0.1,0.1-0.1,0.2-0.2,0.3c0.1,0,0.2,0,0.3,0c0.3,0,0.6,0.3,0.6,0.6c0,0.2,0,0.4-0.1,0.6
			c0.1,0,0.2,0,0.3,0.1c0.6,0.2,0.5,0.9,0.5,1.4c-0.1,0.7-0.3,1.5-0.8,2c0.4,0.4,0.6,0.8,0.8,1.4c0.1,0.4,0.2,0.8,0.1,1.2l0,0.1
			c0,0.5-0.1,1-0.4,1.3c-0.2,0.2-0.4,0.2-0.6,0.2c0.1,1,0.2,2.1,0.3,3.1l0,0.5c0.2,2.4,0.3,4.8,0.2,7.3c0,2.3-0.5,4.5-1.9,6.3
			c-1.3,1.7-3.1,2.9-5.1,3.4c-1.1,0.3-2.2,0.3-3.4,0.1c-0.5-0.1-1.1-0.2-1.6-0.4c-0.6-0.2-1-0.5-1.4-1c-0.2-0.2-0.1-0.7,0.3-0.6
			c0.5,0.1,1,0.1,1.6,0.3l0.1,0c0.5,0.2,1.1,0.3,1.6,0.3c1.1,0.1,2.2,0,3.3-0.3c1.7-0.6,3.2-1.8,4.2-3.3c1.1-1.8,1.3-3.9,1.3-6
			c0-2.3-0.1-4.6-0.2-6.9l0-0.4c-0.1-1.2-0.1-2.4-0.2-3.6c0-0.4,0-0.7-0.1-1.1c-0.4-0.3-0.8-0.6-1.1-1c-0.5,0.2-1,0.4-1.5,0.5
			c-1.1,0.3-2.3,0.3-3.5,0.2c-0.3,0.1-0.6,0.2-0.9,0.3c-0.1,0-0.2,0.1-0.3,0.1c-0.8,0.3-1.6,0.6-2.4,0.8l-0.2,0.1
			c-0.4,0.1-0.9,0.2-1.4,0.2c-0.1,0-0.2,0.1-0.2,0.1c-0.4,0.1-0.9,0.1-1.3,0.1c-0.4,0-0.7-0.5-0.5-0.9c0.2-0.3,0.3-0.6,0.5-0.9
			c-0.6,0.2-1.2,0.5-1.8,0.6c-0.6,0.2-1.3,0.3-1.9,0.5c-0.3,0.1-0.7,0.1-1,0.2c-0.2,0.1-0.6,0.1-0.8,0.2c-0.2,0.2-0.3,0.6-0.4,0.8
			c-0.1,0.3-0.2,0.7-0.3,1c-0.2,0.7-0.3,1.3-0.5,2c-0.1,0.7-0.2,1.4-0.2,2.1c0,0.7,0,1.4-0.1,2.1c0,0.4-0.4,0.6-0.7,0.3
			c0,0-0.1-0.1-0.1-0.1l-0.1,0c-0.2-0.2-0.5-0.5-0.7-0.7c0,0-0.1-0.1-0.1-0.2c0,0,0,0,0,0l-0.1,0c-0.6-0.4-1.6-1-2.2-0.3
			c-0.2,0.2-0.3,0.5-0.4,0.8l-0.1,0.5c-0.1,0.3-0.2,0.7-0.2,1c-0.1,0.8-0.1,1.7,0.5,2.3c0.2,0.3,0.5,0.4,0.8,0.5c0.2,0,0.4,0,0.5,0
			c0.2,0,0.4,0,0.6,0c0.3,0,0.4,0.3,0.3,0.5c-0.1,0.1-0.1,0.2-0.2,0.3c0.1,0.1,0.1,0.1,0.2,0.2c0.2,0.1,0.3,0.2,0.4,0.3
			c0.1,0.1,0.1,0.3,0.2,0.4c0,0,0,0.1,0,0.1l0.2,0.3c0,0.1,0.1,0.1,0.1,0.2c0.4,0.6,0.9,1.2,1.4,1.7c0.5,0.5,1.1,0.9,1.6,1.5
			l0.1,0.1c0.5,0.5,1,1.1,0.8,1.8c0,0.2-0.3,0.3-0.5,0.2c-0.5-0.4-0.8-1-1.3-1.5c-0.5-0.5-1-1-1.5-1.5c-0.5-0.5-0.8-1-1.1-1.6
			c-0.1,0.1-0.3,0.2-0.5,0.2c-0.4,0.1-0.7-0.2-0.9-0.5c-0.1,0-0.2,0.1-0.3,0.1c-0.6,0.2-0.9-0.5-0.7-0.9c0.1-0.2,0.3-0.5,0.4-0.6
			c-0.6-0.1-1.1-0.4-1.5-0.7c-0.9-0.9-1-2.2-0.8-3.4c0.1-0.6,0.3-1.3,0.5-1.9c0-0.1,0.1-0.2,0.1-0.3c0,0-0.1,0-0.1,0
			c-0.2-0.2-0.4-0.4-0.5-0.7c-0.1-0.2-0.2-0.5-0.3-0.7c-0.2-0.5-0.3-1-0.3-1.6c-0.1-1.1-0.1-2.1,0.1-3.2c0.3-1.8,0.9-3.5,1.9-5.1
			c-0.1,0-0.1-0.1-0.2-0.1l0,0l0,0c-0.3-0.3-0.3-0.7,0-1l0.1-0.1c0.1-0.1,0.2-0.2,0.4-0.3c0,0,0,0,0.1,0c-0.1-0.2-0.1-0.3-0.1-0.6
			c0.2-0.7,1.3-0.7,1.9-0.4c0.7-0.7,1.5-1.2,2.4-1.7C26.9,14.4,29.3,13.7,31.6,13.2z M20.8,32.3c0.4-0.1,0.9,0.1,1.3,0.3
			c0.4,0.2,0.8,0.5,1.2,0.8c0.2,0.2,0.2,0.4,0.2,0.6c0,0,0,0,0,0.1c0,0.2-0.3,0.4-0.5,0.4c-0.5,0-0.7-0.4-1-0.8
			c0,0.1-0.1,0.1-0.1,0.2l0,0c-0.1,0.1-0.2,0.2-0.4,0.2c-0.1,0-0.2,0-0.3-0.1c-0.2-0.1-0.3-0.4-0.3-0.7c0-0.2,0.1-0.3,0.3-0.4l0,0
			c-0.1-0.1-0.2-0.1-0.3-0.2l0,0h0C20.6,32.5,20.6,32.4,20.8,32.3z"/>
		<path class="st3" d="M39.2,39.8c-0.5,0.2-1.1,0.2-1.7,0c-0.5-0.1-1-0.5-1.4-0.9c-0.3-0.4-0.5-0.9-0.5-1.4c0-0.1,0-0.1,0.1-0.1
			c0,0,0.1-0.1,0.1-0.1c0.1,0,0.1,0,0.2,0c0,0,0.1,0.1,0.1,0.1c0.1,0.1,0.1,0.1,0.2,0.2c0.5,0.6,0.9,1,1.6,1.1
			c0.4,0.1,0.8,0,1.1-0.1c0.4-0.1,0.7-0.4,1-0.7c0.1-0.1,0.3-0.2,0.4-0.2c0.2,0,0.3,0.1,0.4,0.2c0.1,0.1,0.2,0.3,0.2,0.4
			c0,0.1,0,0.3-0.2,0.4C40.3,39.3,39.7,39.6,39.2,39.8z M39.2,32.7c0.6,0.3,1.4,1.1,0.8,2c-0.7,0.7-1.7-0.1-2.2-0.5
			c-0.5-0.3-1,0.5-0.6,0.8c3.7,2.7,5.1-2.2,2.3-2.7C39.1,32.2,39,32.6,39.2,32.7z M33.9,31.2c-0.2-0.1-0.4-0.2-0.6,0
			c-0.2,0.1-0.5,0.4-0.7,0.7c-0.2,0.3-0.3,0.5-0.2,0.9c0,0.1,0,0.1-0.1,0.2c0,0-0.1,0.1-0.1,0.1c0,0-0.1,0-0.1,0
			c-0.1,0-0.1-0.1-0.1-0.1c-0.2-0.4-0.1-0.9,0.1-1.3c0.2-0.6,0.7-1,1-1.2c0.5-0.3,1.1-0.3,1.5,0c0.4,0.2,0.7,0.6,0.9,1
			c0.1,0.1,0.1,0.2,0.2,0.2c0.1,0.2,0.1,0.3,0.1,0.4c0,0.1-0.2,0.3-0.3,0.3c-0.1,0.1-0.3,0.1-0.5,0c-0.1-0.1-0.2-0.2-0.3-0.3
			C34.4,31.6,34.2,31.3,33.9,31.2z M43.1,31.8c-0.1,0.1-0.2,0.1-0.4,0c-0.1,0-0.2-0.1-0.2-0.1c-0.1-0.1-0.1-0.1-0.1-0.2
			c0-0.2-0.1-0.4-0.3-0.5c-0.1-0.1-0.3-0.2-0.5-0.1c-0.2,0-0.4,0.2-0.5,0.3c0,0.1-0.1,0.1-0.1,0.2c-0.1,0.1-0.1,0.2-0.2,0.3
			c0,0-0.1,0.1-0.1,0.1c0,0,0,0-0.1,0c-0.2-0.2-0.2-0.4-0.2-0.5c0-0.2,0.1-0.3,0.2-0.5c0.2-0.3,0.7-0.6,1-0.7c0.4-0.1,0.8,0,1.2,0.2
			c0.3,0.2,0.6,0.6,0.7,1c0,0.1,0,0.2,0,0.3C43.2,31.7,43.2,31.7,43.1,31.8z M34.8,27.4c-0.2,0.2-0.5,0.3-0.8,0.3
			c-0.2,0-0.3,0-0.4,0.1c-0.4,0.1-0.7,0.2-1,0.4c-0.3,0.2-0.7,0.4-1,0.7c-0.1,0.1-0.1,0.1-0.2,0.2c-0.1,0.1-0.1,0.1-0.2,0.2
			c-0.1,0.1-0.1,0.1-0.2,0.2c0,0.1,0,0.1-0.1,0.1c0,0,0,0,0,0.1c0,0,0,0.1-0.1,0.1c0,0.1-0.1,0.1-0.1,0.1c0,0-0.1,0-0.1,0
			c0,0-0.1,0-0.1,0c-0.1-0.1-0.2-0.3-0.2-0.5c0-0.3,0.1-0.6,0.2-0.8c0.2-0.4,0.5-0.9,0.9-1.3c0.4-0.4,0.9-0.7,1.4-0.9
			c0.3-0.1,0.7-0.2,1.1-0.2c0.3,0,0.5,0.1,0.7,0.3c0.1,0.1,0.2,0.3,0.2,0.5C35,27.1,34.9,27.3,34.8,27.4z M43.6,29.6
			C43.6,29.7,43.5,29.7,43.6,29.6c-0.1,0.1-0.1,0.1-0.1,0.1c0,0-0.1,0-0.1,0c0,0,0,0,0-0.1c-0.2-0.7-0.5-1.3-1.2-1.6
			c-0.3-0.2-0.7-0.3-1.1-0.4c-0.1,0-0.2,0-0.3-0.1c-0.4-0.1-0.7-0.1-0.9-0.4c-0.1-0.2-0.2-0.4-0.2-0.6c0-0.2,0.1-0.4,0.3-0.5
			c0.5-0.3,1.1,0,1.6,0.2c0,0,0.1,0,0.1,0c0.5,0.2,0.9,0.5,1.3,0.9c0.3,0.3,0.6,0.8,0.7,1.3C43.8,28.9,43.8,29.3,43.6,29.6z"/>
		<path class="st3" d="M40.7,41c-0.7-0.6-1.5-1.9-2.5-0.9c-0.2,0.3-0.3,0.9-0.7,1c-0.5,0.2-1-0.4-1.2-0.8c-0.7-2.3,2.2-2.9,3.8-2.5
			c0.8,0.3,1.4,1.7,1.4,2.4C41.7,40.7,41.3,41.4,40.7,41z M46,37.5C46,37.5,46,37.5,46,37.5c-0.3-0.2-0.6-0.1-0.7,0.1
			c0,0.1,0,0.1,0,0.2c-0.1,0.2-0.2,0.5-0.4,0.8c0,0-0.1,0-0.1,0c-2.6,0.3-1.3-2.5-4-3.1c-2-0.3-5.7,0-6.7,2.2
			c-0.8,3.4-4.6,1-5.9-0.7c-1.4-1.6-2.2-3.6-3.1-5.5c-0.2-0.4-0.7-0.1-0.7,0.3c-0.8,1.6-0.8,3.4-0.9,5.2c-0.3,3.4-0.6,8.2,2.5,10.3
			c4.1,4.7,14.5,6.3,19.2,2C47,45.6,46.8,41.3,46,37.5z"/>
		<path class="st3" d="M43.3,27.1c1.8,0,2.7,0.4,3.1,0.4l0,0c0.2,0,0.3,0,0.4,0.1c0.5,0.2,0.6,0.8,0.3,1.1c0,0.7,0.1,1.6-0.1,2.3
			c-0.2,3-1.6,3.6-2.4,3.8c-0.4,0.1-0.9,0.1-1.3,0c-0.7,0-1.5-0.3-2.1-0.7c-0.9-0.6-1.5-1.4-1.7-2.5c-0.1-0.5-0.1-1-0.1-1.5l0-0.1
			c-0.3-0.1-0.6-0.2-1-0.2c-0.2,0-0.3,0-0.5,0c-0.2,0-0.3,0-0.5,0.1c-0.2,0-0.3,0.1-0.5,0.3l0,0.2c0,0.5-0.1,0.9-0.2,1.4
			c-0.1,0.7-0.4,1.3-0.9,1.8c-0.2,0.2-0.4,0.5-0.6,0.7c-0.9,0.7-2.1,0.9-3.2,0.8c-2.3-0.2-3.6-2-3.9-2.8l0,0
			c-0.2-0.6-0.4-1.3-1.1-1.4l-0.1,0c-0.3-0.1-0.6-0.1-0.8-0.4c-0.1-0.1-0.1-0.3-0.1-0.4c-0.1,0-0.2,0-0.3,0c-0.9,0.2-6,0.3-6.4,0.3
			c0,0-0.8,0.3-1.1,0.1c-0.2-0.2-0.3-0.4-0.2-0.7c0.2-0.4,1.1-0.6,1.5-0.7c0,0,6.3,0.1,6.7,0c0.3-0.3,0.8-0.2,1.2-0.3
			c0.3-0.2,0.8-0.4,1.2-0.5c0.1,0,0.2-0.1,0.2-0.1c0.7-0.3,1.4-0.4,2.2-0.5c0.8-0.1,1.5,0,2.3,0.1c0.3,0,0.6,0.1,1,0.2
			c0.6,0.1,1.1,0.2,1.7,0.3l0.1,0c0.6,0.2,1.2,0.3,1.8,0.2c0.5-0.1,1-0.3,1.4-0.5l0.1,0C40.5,27.5,42.1,27.1,43.3,27.1z M34.3,28.8
			c-0.4-0.1-0.5,0.5-0.2,0.6c0.3,0.1,0.5,0.2,0.6,0.4l0,0c0.2,0.3,0.7,0,0.5-0.3C35.1,29.2,34.8,28.9,34.3,28.8z M45.3,28.4
			c-0.1-0.1-0.3,0-0.4,0.1c-0.1,0.1,0,0.3,0.1,0.4l0,0c0.1,0.1,0.2,0.2,0.2,0.4l0,0c0,0.4,0.6,0.4,0.6,0
			C45.8,29,45.6,28.7,45.3,28.4z"/>
	</g>
</g>
<path class="st4" d="M32,60C16.5,60,4,47.5,4,32H0c0,17.7,14.3,32,32,32V60z M60,32c0,15.5-12.5,28-28,28v4c17.7,0,32-14.3,32-32H60
	z M32,4c15.5,0,28,12.5,28,28h4C64,14.3,49.7,0,32,0V4z M32,0C14.3,0,0,14.3,0,32h4C4,16.5,16.5,4,32,4V0z"/>
</svg>
